<svg width="353" height="36" viewBox="0 0 353 36" fill="none" xmlns="http://www.w3.org/2000/svg">
<path d="M23.3 4.2C19.4 1.3 15.7 0.899998 13.4 0.899998C10.3 0.899998 7.5 1.55 5.15 3.95C3.15 6 2.25 8.5 2.25 11.45C2.25 13.05 2.5 15.4 4.25 17.25C5.55 18.65 7.35 19.35 8.9 19.9L11.65 20.85C12.6 21.2 14.65 21.95 15.55 22.7C16.25 23.3 16.7 24 16.7 25.1C16.7 26.35 16.15 27.25 15.5 27.8C14.4 28.75 13 28.95 12 28.95C10.45 28.95 9.1 28.55 7.8 27.75C6.9 27.2 5.55 26.05 4.7 25.2L0.7 30.7C1.95 31.95 3.9 33.5 5.6 34.35C7.7 35.4 9.8 35.75 12.2 35.75C14.4 35.75 18.7 35.45 21.65 32.35C23.4 30.55 24.6 27.55 24.6 24.1C24.6 22.15 24.1 19.75 22.15 17.9C20.85 16.65 19.05 15.9 17.6 15.35L15.1 14.4C12.85 13.55 11.7 13.25 10.9 12.5C10.4 12.05 10.15 11.45 10.15 10.65C10.15 9.8 10.5 9.05 11 8.55C11.9 7.55 13.2 7.4 14.25 7.4C15.2 7.4 17.35 7.55 19.85 9.8L23.3 4.2ZM51.166 35H59.166L46.016 1.65H38.966L25.516 35H33.516L36.066 28.7H48.666L51.166 35ZM38.316 22.8L42.466 11.6L46.566 22.8H38.316ZM62.9039 1.65V35H80.9539V28.5H70.6039V1.65H62.9039ZM103.387 8.15V1.65H81.1871V8.15H88.4371V35H96.1371V8.15H103.387Z" fill="#E82EA9"/>
<path d="M131.535 25.1C128.585 28 125.885 28.55 123.885 28.55C119.785 28.55 117.385 26.45 116.685 25.75C115.185 24.3 113.785 21.85 113.785 18.4C113.785 15.2 115.085 12.5 116.935 10.7C118.685 9 120.935 8.1 123.735 8.1C127.285 8.1 129.835 9.85 131.535 11.65V2.75C128.285 1.35 125.735 0.899998 123.535 0.899998C118.335 0.899998 114.035 2.85 111.085 5.7C108.085 8.6 105.885 13 105.885 18.25C105.885 23.6 108.085 28 111.085 30.9C113.885 33.65 118.035 35.75 124.185 35.75C126.185 35.75 128.585 35.45 131.535 33.95V25.1ZM154.359 0.899998C147.709 0.899998 143.559 3.55 141.309 5.8C138.309 8.8 136.159 13.65 136.159 18.45C136.159 23.35 138.159 27.85 141.359 30.85C143.859 33.25 148.109 35.75 154.359 35.75C159.959 35.75 164.159 33.85 167.259 30.85C170.859 27.35 172.459 22.8 172.459 18.35C172.459 13.2 170.409 8.8 167.259 5.75C163.909 2.5 159.559 0.899998 154.359 0.899998ZM154.309 8C157.359 8 160.009 9.25 161.659 10.85C163.159 12.35 164.559 14.9 164.559 18.35C164.559 22.2 162.959 24.55 161.659 25.8C160.059 27.4 157.659 28.65 154.259 28.65C151.659 28.65 149.259 27.95 147.109 25.9C145.059 23.9 144.059 21.45 144.059 18.4C144.059 14.7 145.559 12.25 147.009 10.85C148.809 9.05 151.409 8 154.309 8ZM178.187 1.65V35H196.237V28.5H185.887V1.65H178.187ZM216.175 0.899998C209.525 0.899998 205.375 3.55 203.125 5.8C200.125 8.8 197.975 13.65 197.975 18.45C197.975 23.35 199.975 27.85 203.175 30.85C205.675 33.25 209.925 35.75 216.175 35.75C221.775 35.75 225.975 33.85 229.075 30.85C232.675 27.35 234.275 22.8 234.275 18.35C234.275 13.2 232.225 8.8 229.075 5.75C225.725 2.5 221.375 0.899998 216.175 0.899998ZM216.125 8C219.175 8 221.825 9.25 223.475 10.85C224.975 12.35 226.375 14.9 226.375 18.35C226.375 22.2 224.775 24.55 223.475 25.8C221.875 27.4 219.475 28.65 216.075 28.65C213.475 28.65 211.075 27.95 208.925 25.9C206.875 23.9 205.875 21.45 205.875 18.4C205.875 14.7 207.375 12.25 208.825 10.85C210.625 9.05 213.225 8 216.125 8ZM240.004 1.65V35H247.704V21.85L256.704 35H266.104L255.854 21.35C257.704 20.9 259.354 19.9 260.504 18.8C262.654 16.7 263.104 14.1 263.104 12C263.104 8.3 261.604 5.9 260.204 4.55C258.604 3.05 255.954 1.65 251.704 1.65H240.004ZM247.704 7.65H249.504C250.504 7.65 252.504 7.75 253.754 8.7C254.404 9.2 255.304 10.2 255.304 12.1C255.304 13.75 254.604 14.8 254.054 15.35C252.754 16.65 250.854 16.8 249.454 16.8H247.704V7.65Z" fill="#E3CC51"/>
<path d="M270.375 1.65V35H288.425V28.5H278.075V1.65H270.375ZM316.449 35H324.449L311.299 1.65H304.249L290.799 35H298.799L301.349 28.7H313.949L316.449 35ZM303.599 22.8L307.749 11.6L311.849 22.8H303.599ZM328.187 1.65V35H340.737C342.787 35 346.787 34.8 349.537 32.15C350.837 30.85 352.137 28.75 352.137 25.4C352.137 22.45 351.087 20.55 349.987 19.45C348.787 18.25 346.987 17.45 345.387 17.2C346.187 16.85 347.337 16.15 348.187 14.75C349.087 13.3 349.287 11.8 349.287 10.5C349.287 9.05 349.037 6.25 346.887 4.2C344.287 1.75 340.187 1.65 338.387 1.65H328.187ZM335.787 7.65H336.987C338.387 7.65 339.887 7.65 340.987 8.5C341.587 8.95 342.287 9.85 342.287 11.3C342.287 12.75 341.637 13.75 340.937 14.25C339.837 15.05 338.087 15.2 337.037 15.2H335.787V7.65ZM335.787 20.9H337.887C339.437 20.9 342.037 20.9 343.387 22.15C343.887 22.6 344.437 23.5 344.437 24.85C344.437 26.05 344.037 27 343.337 27.65C341.937 28.95 339.587 29 337.637 29H335.787V20.9Z" fill="#4779D9"/>
</svg>
